<svg xmlns="http://www.w3.org/2000/svg" width="95" height="181" viewBox="0 0 95 181" fill="none"><path d="M28.9098 179.897C27.9547 180.894 26.3722 180.928 25.3751 179.972L9.12729 164.408C8.13024 163.453 8.09625 161.87 9.05138 160.873C10.0065 159.876 11.589 159.842 12.5861 160.797L27.0286 174.632L40.8638 160.19C41.819 159.193 43.4015 159.159 44.3986 160.114C45.3956 161.069 45.4296 162.652 44.4745 163.649L28.9098 179.897ZM60.141 72.1077L59.5769 69.6722L60.141 72.1077ZM77.5307 25.4216L76.0991 23.3721L77.5307 25.4216ZM27.1045 178.167L24.6051 178.221C24.2519 161.773 25.488 136.672 30.3783 114.793C32.8216 103.863 36.2081 93.5911 40.8589 85.5808C45.4979 77.5909 51.5958 71.5206 59.5769 69.6722L60.141 72.1077L60.705 74.5433C54.6304 75.9501 49.4832 80.6848 45.1829 88.0913C40.8945 95.4775 37.6474 105.194 35.2579 115.884C30.4826 137.248 29.2562 161.921 29.6039 178.113L27.1045 178.167ZM60.141 72.1077L59.5769 69.6722C62.0597 69.0972 64.3517 69.056 66.3691 69.6894C68.4373 70.3387 70.0261 71.6391 71.1267 73.3835C73.2226 76.7054 73.4681 81.4813 72.8009 86.5041C71.4425 96.7295 65.9789 110.252 58.6901 122.089C51.4492 133.849 42.0321 144.56 32.4128 148.522C27.4879 150.551 22.334 150.873 17.4768 148.438C12.7019 146.045 8.63382 141.195 5.33996 133.778L7.6248 132.763L9.90963 131.748C12.9499 138.594 16.3716 142.292 19.7171 143.968C22.9803 145.604 26.5773 145.518 30.5086 143.899C38.6019 140.565 47.319 131.021 54.4325 119.468C61.498 107.993 66.6091 95.1449 67.8444 85.8457C68.474 81.1063 68.021 77.8314 66.8981 76.0516C66.3893 75.2452 65.7386 74.732 64.8715 74.4598C63.9536 74.1716 62.6146 74.101 60.705 74.5433L60.141 72.1077ZM7.6248 132.763L5.33996 133.778C-1.25409 118.929 -1.19552 105.226 2.96128 92.8894C7.09308 80.6271 15.2254 69.847 24.5792 60.6266C43.1662 42.3045 67.4921 29.3842 76.0991 23.3721L77.5307 25.4216L78.9623 27.4711C69.5896 34.0181 46.2943 46.2419 28.0893 64.1874C19.047 73.1008 11.4905 83.2353 7.69952 94.4859C3.93358 105.662 3.83547 118.07 9.90963 131.748L7.6248 132.763ZM77.5307 25.4216L76.0991 23.3721C89.9433 13.7016 90.265 4.55633 89.4996 2.13297L91.8835 1.37999L94.2674 0.627002C95.9198 5.85859 93.8855 17.0469 78.9623 27.4711L77.5307 25.4216Z" fill="black"></path></svg>